# Blender v3.6.3 OBJ File: 'adream_empty.blend'
# www.blender.org
mtllib IKEA_armchair_EKTORP.mtl
o IKEA_armchair_EKTORP_Cube.000
v 0.182975 -0.151570 0.360390
v 0.143056 -0.164391 0.359427
v 0.124555 0.165305 0.365755
v 0.165656 0.157601 0.366590
v 0.201762 -0.154579 0.523615
v 0.163028 -0.167401 0.533047
v 0.143301 0.165566 0.530300
v 0.183368 0.157340 0.521796
v 0.225931 -0.204228 0.036513
v -0.323271 -0.376761 0.036513
v -0.323271 0.376761 0.036513
v 0.225931 0.204228 0.036513
v 0.281837 -0.226007 0.716800
v -0.312293 -0.397606 0.716800
v -0.312292 0.397607 0.716800
v 0.281838 0.226007 0.716800
v -0.323271 0.000000 0.036513
v 0.289373 -0.000000 0.036513
v 0.355707 -0.000000 0.716800
v -0.074793 -0.361453 0.036513
v -0.074793 0.361453 0.036513
v -0.068320 -0.400000 0.716800
v -0.068320 0.400000 0.716800
v -0.016949 -0.000000 0.036513
v 0.126090 -0.302691 0.036513
v 0.126090 0.302691 0.036513
v 0.165585 -0.334971 0.716800
v 0.165585 0.334971 0.716800
v 0.230698 -0.000000 0.036513
v -0.323271 -0.376761 0.268840
v 0.225931 -0.204228 0.268840
v -0.323271 0.376761 0.268840
v 0.225931 0.204228 0.268840
v -0.323271 0.000000 0.268840
v 0.289373 -0.000000 0.268840
v -0.074793 -0.361453 0.268840
v -0.074793 0.361453 0.268840
v 0.126090 -0.302691 0.268840
v 0.126090 0.302691 0.268840
v 0.124958 0.239955 0.727326
v -0.042598 0.286539 0.727326
v 0.208236 0.161899 0.727326
v 0.208236 -0.161900 0.727326
v 0.124958 -0.239955 0.727326
v -0.042599 -0.286538 0.727326
v -0.329089 0.298674 0.727326
v -0.329090 -0.298673 0.727326
v 0.261152 -0.000000 0.727326
v -0.316824 0.000000 0.274523
v -0.307850 -0.273082 0.297758
v -0.307849 0.273083 0.297758
v 0.166589 -0.148028 0.297758
v 0.212572 -0.000000 0.297758
v 0.166589 0.148028 0.297758
v -0.051381 -0.261987 0.297758
v -0.051381 0.261987 0.297758
v 0.094222 -0.219396 0.297758
v 0.094222 0.219396 0.297758
v -0.011331 0.000000 0.274523
v 0.186636 -0.000000 0.274523
v -0.056169 0.350681 0.769919
v 0.148896 0.293670 0.769919
v 0.250816 0.198141 0.769919
v 0.250816 -0.198141 0.769919
v 0.148896 -0.293670 0.769919
v -0.056169 -0.350681 0.769919
v -0.344292 0.365533 0.746052
v -0.344292 -0.365532 0.746052
v 0.315578 -0.000000 0.769919
v -0.289135 0.000000 0.293363
v -0.333104 -0.389603 0.654650
v 0.264449 -0.211189 0.654650
v -0.333104 0.389603 0.654650
v 0.264449 0.211189 0.654650
v 0.333476 -0.000000 0.654650
v -0.062750 -0.373774 0.654650
v -0.062750 0.373774 0.654650
v 0.155818 -0.313009 0.654650
v 0.155818 0.313009 0.654650
v -0.315225 -0.284678 0.643398
v -0.315225 0.284678 0.643398
v 0.249301 -0.000000 0.643398
v 0.198864 -0.154313 0.643398
v 0.198864 0.154313 0.643398
v -0.040217 -0.273112 0.643398
v -0.040217 0.273112 0.643398
v 0.119488 -0.228712 0.643398
v 0.119489 0.228712 0.643398
v -0.321610 -0.382471 0.440384
v 0.235175 -0.207323 0.440384
v -0.321610 0.382471 0.440384
v 0.235175 0.207323 0.440384
v 0.299492 -0.000000 0.440384
v -0.069701 -0.366931 0.440384
v -0.069701 0.366931 0.440384
v 0.133956 -0.307279 0.440384
v 0.133956 0.307279 0.440384
v -0.305830 -0.278238 0.451442
v -0.305830 0.278239 0.451442
v 0.221554 -0.000000 0.451442
v 0.174764 -0.150823 0.451442
v 0.174765 0.150822 0.451442
v -0.047026 -0.266934 0.451442
v -0.047025 0.266934 0.451442
v 0.101130 -0.223538 0.451442
v 0.101130 0.223538 0.451442
v 0.127231 -0.228342 0.278345
v -0.316976 -0.301491 0.278345
v -0.316976 0.299158 0.278345
v 0.127231 0.226010 0.278345
v 0.127230 -0.228342 0.360572
v -0.316976 -0.301491 0.360572
v -0.316975 0.299158 0.360572
v 0.127231 0.226010 0.360572
v -0.316976 -0.001166 0.278345
v 0.225863 -0.001166 0.278345
v -0.316976 -0.001166 0.360572
v 0.225863 -0.001166 0.360572
v -0.057653 -0.293650 0.278345
v -0.057653 0.291317 0.278345
v -0.057653 -0.293650 0.360572
v -0.057653 0.291317 0.360572
v -0.057653 -0.001166 0.278345
v 0.063362 -0.252166 0.278345
v 0.063362 0.249833 0.278345
v 0.063362 -0.252166 0.360572
v 0.063362 0.249833 0.360572
v 0.063362 -0.001166 0.278345
v 0.121739 0.113066 0.392551
v 0.135244 0.113066 0.510991
v 0.134191 -0.108762 0.388320
v 0.147640 -0.116286 0.502430
v 0.154388 0.000520 0.360348
v 0.194891 0.003205 0.361248
v 0.173754 -0.000875 0.529486
v 0.213146 0.001552 0.520513
v 0.161987 -0.000930 0.504454
v 0.148510 0.002878 0.388205
v -0.239066 0.277823 -0.000081
v -0.242822 0.268754 -0.000081
v -0.251892 0.264997 -0.000081
v -0.260962 0.268754 -0.000081
v -0.264718 0.277823 -0.000081
v -0.260962 0.286893 -0.000081
v -0.251892 0.290650 -0.000081
v -0.242822 0.286893 -0.000081
v -0.228509 0.277823 0.088550
v -0.235358 0.261289 0.088550
v -0.251892 0.254441 0.088550
v -0.268426 0.261289 0.088550
v -0.275274 0.277823 0.088550
v -0.268426 0.294357 0.088550
v -0.251892 0.301206 0.088550
v -0.235358 0.294357 0.088550
v -0.251892 0.277823 -0.000081
v -0.251892 0.277823 0.088550
v -0.251892 -0.288776 0.088550
v -0.251892 -0.288776 -0.000081
v -0.235358 -0.272242 0.088550
v -0.251892 -0.265393 0.088550
v -0.268426 -0.272242 0.088550
v -0.275274 -0.288776 0.088550
v -0.268426 -0.305310 0.088550
v -0.251892 -0.312158 0.088550
v -0.235358 -0.305310 0.088550
v -0.228509 -0.288776 0.088550
v -0.242822 -0.279706 -0.000081
v -0.251892 -0.275949 -0.000081
v -0.260962 -0.279706 -0.000081
v -0.264718 -0.288776 -0.000081
v -0.260962 -0.297845 -0.000081
v -0.251892 -0.301602 -0.000081
v -0.242822 -0.297845 -0.000081
v -0.239066 -0.288776 -0.000081
v 0.089520 -0.175035 -0.000081
v 0.085763 -0.184104 -0.000081
v 0.076693 -0.187861 -0.000081
v 0.067624 -0.184104 -0.000081
v 0.063867 -0.175035 -0.000081
v 0.067624 -0.165965 -0.000081
v 0.076693 -0.162208 -0.000081
v 0.085763 -0.165965 -0.000081
v 0.100076 -0.175035 0.088550
v 0.093227 -0.191569 0.088550
v 0.076693 -0.198417 0.088550
v 0.060159 -0.191569 0.088550
v 0.053311 -0.175035 0.088550
v 0.060159 -0.158501 0.088550
v 0.076693 -0.151652 0.088550
v 0.093227 -0.158501 0.088550
v 0.076693 -0.175035 -0.000081
v 0.076693 -0.175035 0.088550
v 0.076693 0.174614 0.088550
v 0.076693 0.174614 -0.000081
v 0.093227 0.191148 0.088550
v 0.076693 0.197996 0.088550
v 0.060159 0.191148 0.088550
v 0.053311 0.174614 0.088550
v 0.060159 0.158080 0.088550
v 0.076693 0.151231 0.088550
v 0.093227 0.158080 0.088550
v 0.100076 0.174614 0.088550
v 0.085763 0.183683 -0.000081
v 0.076693 0.187440 -0.000081
v 0.067624 0.183683 -0.000081
v 0.063867 0.174614 -0.000081
v 0.067624 0.165544 -0.000081
v 0.076693 0.161787 -0.000081
v 0.085763 0.165544 -0.000081
v 0.089520 0.174614 -0.000081
v 0.108394 0.200078 0.376169
v 0.051816 0.221182 0.376169
v -0.055385 0.257931 0.376169
v -0.055385 -0.260263 0.376169
v 0.051815 -0.223515 0.376169
v 0.108394 -0.202411 0.376169
v -0.285107 0.264876 0.376169
v -0.285107 -0.267209 0.376169
v 0.195767 -0.001166 0.376169
v -0.285107 -0.001166 0.376169
v -0.055385 -0.001166 0.376169
v 0.051815 -0.001166 0.376169
vn 0.6014 -0.4892 -0.6317
vn 0.7235 -0.4994 0.4766
vn -0.3430 -0.6758 0.6524
vn -0.4788 -0.6723 -0.5646
vn -0.5546 0.6283 -0.5456
vn -0.4277 0.6391 0.6392
vn 0.6578 0.5742 0.4874
vn 0.5421 0.5785 -0.6095
vn -0.7071 0.0000 -0.7071
vn -0.0000 0.0000 -1.0000
vn 0.1258 -0.7196 -0.6829
vn -0.5608 -0.5965 -0.5742
vn -0.5608 0.5965 -0.5742
vn 0.1258 0.7196 -0.6829
vn 0.3825 -0.6506 -0.6560
vn 0.6445 -0.3923 -0.6563
vn 0.7633 -0.0000 -0.6460
vn 0.3825 0.6506 -0.6560
vn 0.6445 0.3923 -0.6563
vn -0.9629 0.0000 0.2698
vn -0.7100 -0.7035 0.0307
vn -0.7100 0.7035 0.0307
vn 0.8534 -0.5205 -0.0278
vn 0.9996 -0.0000 -0.0297
vn 0.8534 0.5205 -0.0278
vn 0.1714 -0.9850 -0.0182
vn 0.1714 0.9850 -0.0182
vn 0.5051 -0.8628 -0.0231
vn 0.5051 0.8628 -0.0231
vn -0.0076 -0.0000 1.0000
vn -0.5090 0.0000 0.8608
vn -0.7558 0.3547 0.5505
vn -0.1153 0.7397 0.6630
vn -0.1153 -0.7397 0.6630
vn -0.7558 -0.3547 0.5505
vn -0.8334 0.0000 0.5527
vn -0.2262 0.0000 0.9741
vn -0.3914 0.6730 0.6276
vn -0.7292 0.4317 0.5310
vn -0.7292 -0.4317 0.5310
vn -0.3914 -0.6730 0.6276
vn 0.1200 0.9710 0.2066
vn 0.0187 0.1956 0.9805
vn 0.1202 0.1895 0.9745
vn 0.4779 0.8652 0.1515
vn -0.1470 -0.8125 0.5642
vn -0.4142 -0.7284 0.5458
vn 0.2080 0.1120 0.9717
vn 0.8294 0.5398 0.1441
vn -0.7180 -0.4495 0.5314
vn 0.8294 -0.5398 0.1441
vn 0.2080 -0.1120 0.9717
vn 0.1202 -0.1895 0.9745
vn 0.4779 -0.8652 0.1515
vn -0.7180 0.4495 0.5314
vn -0.4142 0.7284 0.5458
vn 0.0187 -0.1956 0.9805
vn 0.1200 -0.9710 0.2066
vn -0.1470 0.8125 0.5642
vn -0.2294 0.9410 0.2486
vn -0.7465 0.1683 0.6437
vn -0.5878 -0.6865 0.4280
vn -0.7465 -0.1683 0.6437
vn -0.2294 -0.9410 0.2486
vn -0.5878 0.6865 0.4280
vn 0.2631 -0.0000 0.9648
vn 0.9903 -0.0000 0.1388
vn -0.8449 0.0000 0.5350
vn 0.9686 -0.0000 -0.2486
vn 0.8261 -0.5104 -0.2388
vn 0.8261 0.5104 -0.2388
vn -0.7423 -0.6543 -0.1443
vn 0.1608 -0.9698 -0.1831
vn 0.1609 0.9698 -0.1831
vn -0.7423 0.6543 -0.1443
vn 0.4887 -0.8430 -0.2248
vn 0.4887 0.8430 -0.2248
vn -0.9904 0.0000 0.1383
vn -0.8419 0.5240 0.1287
vn -0.8419 -0.5240 0.1287
vn -0.1601 0.9824 0.0964
vn -0.6381 0.7699 0.0113
vn -0.6381 -0.7699 0.0113
vn -0.1601 -0.9824 0.0964
vn -0.4962 0.8611 0.1106
vn -0.4962 -0.8611 0.1106
vn 0.9945 -0.0000 -0.1050
vn 0.8463 -0.5251 -0.0898
vn 0.8463 0.5251 -0.0898
vn -0.7312 -0.6812 -0.0369
vn 0.1700 -0.9847 -0.0379
vn 0.1700 0.9847 -0.0379
vn -0.7312 0.6812 -0.0369
vn 0.4984 -0.8649 -0.0601
vn 0.4984 0.8649 -0.0601
vn -0.9951 0.0000 0.0984
vn -0.8469 0.5249 0.0850
vn -0.8469 -0.5249 0.0850
vn -0.1611 0.9862 0.0380
vn -0.6602 0.7510 0.0114
vn -0.6602 -0.7510 0.0114
vn -0.1611 -0.9862 0.0380
vn -0.4988 0.8647 0.0584
vn -0.4988 -0.8647 0.0584
vn -0.6088 -0.6288 0.4838
vn -0.8484 0.0000 0.5293
vn -0.5693 -0.5868 -0.5758
vn -0.6088 0.6288 0.4838
vn -0.5693 0.5868 -0.5758
vn 0.6010 0.6410 0.4774
vn 0.8836 -0.0000 0.4683
vn 0.7786 0.0000 -0.6275
vn 0.5352 0.5641 -0.6287
vn 0.6010 -0.6410 0.4774
vn 0.5352 -0.5641 -0.6287
vn 0.1495 -0.8463 0.5114
vn 0.1323 -0.7259 -0.6750
vn 0.1495 0.8463 0.5114
vn 0.1323 0.7259 -0.6750
vn 0.2875 -0.8031 0.5219
vn 0.2392 -0.6686 -0.7041
vn 0.2875 0.8031 0.5219
vn 0.2392 0.6686 -0.7041
vn -0.9925 -0.1023 -0.0675
vn -0.9403 -0.1062 0.3232
vn -0.9618 -0.0152 0.2732
vn -0.9970 -0.0000 -0.0780
vn 0.6979 0.0525 -0.7143
vn -0.5372 -0.0080 -0.8434
vn 0.8344 0.0508 0.5489
vn -0.3428 -0.0149 0.9393
vn -0.9389 -0.0542 0.3400
vn -0.9919 -0.0592 -0.1123
vn 0.0787 0.2201 0.9723
vn 0.2022 0.1952 0.9597
vn 0.0495 0.2385 0.9699
vn 0.0787 -0.2201 0.9723
vn 0.0495 -0.2385 0.9699
vn 0.2022 -0.1952 0.9597
vn -0.1695 0.1655 0.9715
vn -0.1695 -0.1655 0.9715
vn 0.2931 -0.0000 0.9561
vn -0.2256 0.0000 0.9742
vn 0.0000 0.0000 1.0000
vn 0.7385 -0.0000 -0.6742
vn 0.5222 -0.5222 -0.6742
vn 0.5733 -0.5733 0.5853
vn 0.8108 -0.0000 0.5853
vn -0.0000 -0.7385 -0.6742
vn -0.0000 -0.8108 0.5853
vn -0.5222 -0.5222 -0.6742
vn -0.5733 -0.5733 0.5853
vn -0.7385 -0.0000 -0.6742
vn -0.8108 -0.0000 0.5853
vn -0.5222 0.5222 -0.6742
vn -0.5733 0.5733 0.5853
vn -0.0000 0.7385 -0.6742
vn -0.0000 0.8108 0.5853
vn 0.5222 0.5222 -0.6742
vn 0.5733 0.5733 0.5853
usemtl M_fabric_red_dark
s 1
f 1//1 5//2 6//3 2//4
f 3//5 7//6 8//7 4//8
f 17//9 24//10 20//11 10//12
f 11//13 21//14 24//10 17//9
f 24//10 29//10 25//15 20//11
f 9//16 25//15 29//10 18//17
f 21//14 26//18 29//10 24//10
f 26//18 12//19 18//17 29//10
f 34//20 17//9 10//12 30//21
f 32//22 11//13 17//9 34//20
f 31//23 9//16 18//17 35//24
f 12//19 33//25 35//24 18//17
f 30//21 10//12 20//11 36//26
f 37//27 21//14 11//13 32//22
f 9//16 31//23 38//28 25//15
f 36//26 20//11 25//15 38//28
f 39//29 26//18 21//14 37//27
f 33//25 12//19 26//18 39//29
f 59//30 49//31 50//32 55//33
f 56//34 51//35 49//31 59//30
f 53//36 60//37 57//38 52//39
f 60//37 59//30 55//33 57//38
f 54//40 58//41 60//37 53//36
f 58//41 56//34 59//30 60//37
f 23//42 61//43 62//44 28//45
f 61//43 41//46 40//47 62//44
f 28//45 62//44 63//48 16//49
f 62//44 40//47 42//50 63//48
f 13//51 64//52 65//53 27//54
f 64//52 43//55 44//56 65//53
f 27//54 65//53 66//57 22//58
f 65//53 44//56 45//59 66//57
f 15//60 67//61 61//43 23//42
f 67//61 46//62 41//46 61//43
f 22//58 66//57 68//63 14//64
f 66//57 45//59 47//65 68//63
f 16//49 63//48 69//66 19//67
f 63//48 42//50 48//68 69//66
f 19//67 69//66 64//52 13//51
f 69//66 48//68 43//55 64//52
f 75//69 19//67 13//51 72//70
f 74//71 16//49 19//67 75//69
f 14//64 71//72 76//73 22//58
f 23//42 77//74 73//75 15//60
f 27//54 78//76 72//70 13//51
f 22//58 76//73 78//76 27//54
f 28//45 79//77 77//74 23//42
f 16//49 74//71 79//77 28//45
f 48//68 82//78 83//79 43//55
f 42//50 84//80 82//78 48//68
f 45//59 85//81 80//82 47//65
f 46//62 81//83 86//84 41//46
f 44//56 87//85 85//81 45//59
f 43//55 83//79 87//85 44//56
f 40//47 88//86 84//80 42//50
f 41//46 86//84 88//86 40//47
f 35//24 93//87 90//88 31//23
f 93//87 75//69 72//70 90//88
f 33//25 92//89 93//87 35//24
f 92//89 74//71 75//69 93//87
f 71//72 89//90 94//91 76//73
f 89//90 30//21 36//26 94//91
f 77//74 95//92 91//93 73//75
f 95//92 37//27 32//22 91//93
f 78//76 96//94 90//88 72//70
f 96//94 38//28 31//23 90//88
f 76//73 94//91 96//94 78//76
f 94//91 36//26 38//28 96//94
f 79//77 97//95 95//92 77//74
f 97//95 39//29 37//27 95//92
f 74//71 92//89 97//95 79//77
f 92//89 33//25 39//29 97//95
f 82//78 100//96 101//97 83//79
f 100//96 53//36 52//39 101//97
f 84//80 102//98 100//96 82//78
f 102//98 54//40 53//36 100//96
f 85//81 103//99 98//100 80//82
f 103//99 55//33 50//32 98//100
f 81//83 99//101 104//102 86//84
f 99//101 51//35 56//34 104//102
f 87//85 105//103 103//99 85//81
f 105//103 57//38 55//33 103//99
f 83//79 101//97 105//103 87//85
f 101//97 52//39 57//38 105//103
f 88//86 106//104 102//98 84//80
f 106//104 58//41 54//40 102//98
f 86//84 104//102 106//104 88//86
f 104//102 56//34 58//41 106//104
f 30//21 50//32 49//31 34//20
f 32//22 34//20 49//31 51//35
f 30//21 89//90 98//100 50//32
f 71//72 80//82 98//100 89//90
f 14//64 68//63 71//72
f 47//65 80//82 71//72 68//63
f 32//22 51//35 99//101 91//93
f 73//75 91//93 99//101 81//83
f 15//60 73//75 67//61
f 46//62 67//61 73//75 81//83
f 112//105 117//106 115//9 108//107
f 117//106 113//108 109//109 115//9
f 114//110 118//111 116//112 110//113
f 118//111 111//114 107//115 116//112
f 121//116 112//105 108//107 119//117
f 113//108 122//118 120//119 109//109
f 123//10 115//9 109//109 120//119
f 119//117 108//107 115//9 123//10
f 111//114 126//120 124//121 107//115
f 126//120 121//116 119//117 124//121
f 122//118 127//122 125//123 120//119
f 127//122 114//110 110//113 125//123
f 116//112 128//10 125//123 110//113
f 128//10 123//10 120//119 125//123
f 107//115 124//121 128//10 116//112
f 124//121 119//117 123//10 128//10
f 7//6 3//5 129//124 130//125
f 2//4 6//3 132//126 131//127
f 134//128 1//1 2//4 133//129
f 133//129 3//5 4//8 134//128
f 5//2 136//130 135//131 6//3
f 136//130 8//7 7//6 135//131
f 1//1 134//128 136//130 5//2
f 134//128 4//8 8//7 136//130
f 6//3 135//131 137//132 132//126
f 135//131 7//6 130//125 137//132
f 3//5 133//129 138//133 129//124
f 133//129 2//4 131//127 138//133
f 132//126 137//132 138//133 131//127
f 137//132 130//125 129//124 138//133
f 114//110 127//122 212//134 211//135
f 127//122 122//118 213//136 212//134
f 121//116 126//120 215//137 214//138
f 126//120 111//114 216//139 215//137
f 122//118 113//108 217//140 213//136
f 112//105 121//116 214//138 218//141
f 118//111 114//110 211//135 219//142
f 111//114 118//111 219//142 216//139
f 117//106 112//105 218//141 220//143
f 113//108 117//106 220//143 217//140
f 212//134 213//136 221//144 222//144
f 211//135 212//134 222//144 219//142
f 222//144 221//144 214//138 215//137
f 219//142 222//144 215//137 216//139
f 213//136 217//140 220//143 221//144
f 221//144 220//143 218//141 214//138
usemtl M_wood_shiny_mast
f 155//10 139//145 140//146
f 156//144 148//147 147//148
f 155//10 140//146 141//149
f 156//144 149//150 148//147
f 155//10 141//149 142//151
f 156//144 150//152 149//150
f 155//10 142//151 143//153
f 156//144 151//154 150//152
f 155//10 143//153 144//155
f 156//144 152//156 151//154
f 155//10 144//155 145//157
f 156//144 153//158 152//156
f 155//10 145//157 146//159
f 156//144 154//160 153//158
f 155//10 146//159 139//145
f 156//144 147//148 154//160
f 139//145 147//148 148//147 140//146
f 140//146 148//147 149//150 141//149
f 141//149 149//150 150//152 142//151
f 142//151 150//152 151//154 143//153
f 143//153 151//154 152//156 144//155
f 144//155 152//156 153//158 145//157
f 145//157 153//158 154//160 146//159
f 146//159 154//160 147//148 139//145
f 167//159 159//160 166//148 174//145
f 168//157 160//158 159//160 167//159
f 169//155 161//156 160//158 168//157
f 170//153 162//154 161//156 169//155
f 171//151 163//152 162//154 170//153
f 172//149 164//150 163//152 171//151
f 173//146 165//147 164//150 172//149
f 174//145 166//148 165//147 173//146
f 157//144 166//148 159//160
f 158//10 167//159 174//145
f 157//144 159//160 160//158
f 158//10 168//157 167//159
f 157//144 160//158 161//156
f 158//10 169//155 168//157
f 157//144 161//156 162//154
f 158//10 170//153 169//155
f 157//144 162//154 163//152
f 158//10 171//151 170//153
f 157//144 163//152 164//150
f 158//10 172//149 171//151
f 157//144 164//150 165//147
f 158//10 173//146 172//149
f 157//144 165//147 166//148
f 158//10 174//145 173//146
f 191//10 175//145 176//146
f 192//144 184//147 183//148
f 191//10 176//146 177//149
f 192//144 185//150 184//147
f 191//10 177//149 178//151
f 192//144 186//152 185//150
f 191//10 178//151 179//153
f 192//144 187//154 186//152
f 191//10 179//153 180//155
f 192//144 188//156 187//154
f 191//10 180//155 181//157
f 192//144 189//158 188//156
f 191//10 181//157 182//159
f 192//144 190//160 189//158
f 191//10 182//159 175//145
f 192//144 183//148 190//160
f 175//145 183//148 184//147 176//146
f 176//146 184//147 185//150 177//149
f 177//149 185//150 186//152 178//151
f 178//151 186//152 187//154 179//153
f 179//153 187//154 188//156 180//155
f 180//155 188//156 189//158 181//157
f 181//157 189//158 190//160 182//159
f 182//159 190//160 183//148 175//145
f 203//159 195//160 202//148 210//145
f 204//157 196//158 195//160 203//159
f 205//155 197//156 196//158 204//157
f 206//153 198//154 197//156 205//155
f 207//151 199//152 198//154 206//153
f 208//149 200//150 199//152 207//151
f 209//146 201//147 200//150 208//149
f 210//145 202//148 201//147 209//146
f 193//144 202//148 195//160
f 194//10 203//159 210//145
f 193//144 195//160 196//158
f 194//10 204//157 203//159
f 193//144 196//158 197//156
f 194//10 205//155 204//157
f 193//144 197//156 198//154
f 194//10 206//153 205//155
f 193//144 198//154 199//152
f 194//10 207//151 206//153
f 193//144 199//152 200//150
f 194//10 208//149 207//151
f 193//144 200//150 201//147
f 194//10 209//146 208//149
f 193//144 201//147 202//148
f 194//10 210//145 209//146
l 49 70
l 34 70
